<?xml version="1.0" encoding="UTF-8" standalone="no"?>
<!DOCTYPE svg PUBLIC "-//W3C//DTD SVG 1.1//EN" "http://www.w3.org/Graphics/SVG/1.1/DTD/svg11.dtd">
<svg width="100%" height="100%" viewBox="0 0 38 174" version="1.1" xmlns="http://www.w3.org/2000/svg" xmlns:xlink="http://www.w3.org/1999/xlink" xml:space="preserve" xmlns:serif="http://www.serif.com/" style="fill-rule:evenodd;clip-rule:evenodd;stroke-linejoin:round;stroke-miterlimit:2;">
    <g transform="matrix(1.59918,0,0,1.59918,2.99514,3)">
        <g>
            <path d="M17.4,0.7L17.4,2.8C17.4,4.2 16.3,5.3 14.9,5.3C13.5,5.3 12.4,4.2 12.4,2.8L12.4,1L12.4,0.7L7.7,0.7L7.7,2.8C7.7,4.2 6.6,5.3 5.2,5.3C3.8,5.3 2.7,4.2 2.7,2.8L2.7,1L2.7,0.7L0,0.7L0,20L20,20L20,0.7L17.4,0.7ZM18,19L2,19L2,5.7L18,5.7L18,19Z" style="fill:rgb(158,163,168);fill-rule:nonzero;"/>
            <rect x="5.5" y="6.9" width="2.4" height="2" style="fill:rgb(158,163,168);fill-rule:nonzero;"/>
            <rect x="8.8" y="6.9" width="2.4" height="2" style="fill:rgb(158,163,168);fill-rule:nonzero;"/>
            <rect x="12.1" y="6.9" width="2.4" height="2" style="fill:rgb(158,163,168);fill-rule:nonzero;"/>
            <rect x="5.5" y="9.7" width="2.4" height="2.3" style="fill:rgb(158,163,168);fill-rule:nonzero;"/>
            <rect x="5.5" y="15.6" width="2.4" height="2" style="fill:rgb(158,163,168);fill-rule:nonzero;"/>
            <rect x="5.5" y="12.8" width="2.4" height="2" style="fill:rgb(158,163,168);fill-rule:nonzero;"/>
            <rect x="8.8" y="12.8" width="2.4" height="2" style="fill:rgb(158,163,168);fill-rule:nonzero;"/>
            <rect x="12.1" y="9.7" width="2.4" height="2.3" style="fill:rgb(158,163,168);fill-rule:nonzero;"/>
            <rect x="12.1" y="12.8" width="2.4" height="2" style="fill:rgb(158,163,168);fill-rule:nonzero;"/>
            <path d="M15.9,1L15.9,2.8C15.9,3.4 15.4,3.8 14.9,3.8C14.3,3.8 13.9,3.3 13.9,2.8L13.9,1C13.9,0.4 14.4,0 14.9,0C15.2,0 15.5,0.1 15.6,0.3C15.8,0.5 15.9,0.8 15.9,1Z" style="fill:rgb(158,163,168);fill-rule:nonzero;"/>
            <path d="M6.2,1L6.2,2.8C6.2,3.4 5.7,3.8 5.2,3.8C4.6,3.8 4.2,3.3 4.2,2.8L4.2,1C4.2,0.4 4.7,0 5.2,0C5.5,0 5.8,0.1 5.9,0.3C6.1,0.5 6.2,0.8 6.2,1Z" style="fill:rgb(158,163,168);fill-rule:nonzero;"/>
        </g>
    </g>
    <g transform="matrix(1.59918,0,0,1.59918,3.01638,71.0082)">
        <g>
            <path d="M17.4,0.7L17.4,2.8C17.4,4.2 16.3,5.3 14.9,5.3C13.5,5.3 12.4,4.2 12.4,2.8L12.4,1L12.4,0.7L7.7,0.7L7.7,2.8C7.7,4.2 6.6,5.3 5.2,5.3C3.8,5.3 2.7,4.2 2.7,2.8L2.7,1L2.7,0.7L0,0.7L0,20L20,20L20,0.7L17.4,0.7ZM18,19L2,19L2,5.7L18,5.7L18,19Z" style="fill:rgb(0,184,237);fill-rule:nonzero;"/>
            <rect x="5.5" y="6.9" width="2.4" height="2" style="fill:rgb(0,184,237);fill-rule:nonzero;"/>
            <rect x="8.8" y="6.9" width="2.4" height="2" style="fill:rgb(0,184,237);fill-rule:nonzero;"/>
            <rect x="12.1" y="6.9" width="2.4" height="2" style="fill:rgb(0,184,237);fill-rule:nonzero;"/>
            <rect x="5.5" y="9.7" width="2.4" height="2.3" style="fill:rgb(0,184,237);fill-rule:nonzero;"/>
            <rect x="5.5" y="15.6" width="2.4" height="2" style="fill:rgb(0,184,237);fill-rule:nonzero;"/>
            <rect x="5.5" y="12.8" width="2.4" height="2" style="fill:rgb(0,184,237);fill-rule:nonzero;"/>
            <rect x="8.8" y="12.8" width="2.4" height="2" style="fill:rgb(0,184,237);fill-rule:nonzero;"/>
            <rect x="12.1" y="9.7" width="2.4" height="2.3" style="fill:rgb(0,184,237);fill-rule:nonzero;"/>
            <rect x="12.1" y="12.8" width="2.4" height="2" style="fill:rgb(0,184,237);fill-rule:nonzero;"/>
            <path d="M15.9,1L15.9,2.8C15.9,3.4 15.4,3.8 14.9,3.8C14.3,3.8 13.9,3.3 13.9,2.8L13.9,1C13.9,0.4 14.4,0 14.9,0C15.2,0 15.5,0.1 15.6,0.3C15.8,0.5 15.9,0.8 15.9,1Z" style="fill:rgb(0,184,237);fill-rule:nonzero;"/>
            <path d="M6.2,1L6.2,2.8C6.2,3.4 5.7,3.8 5.2,3.8C4.6,3.8 4.2,3.3 4.2,2.8L4.2,1C4.2,0.4 4.7,0 5.2,0C5.5,0 5.8,0.1 5.9,0.3C6.1,0.5 6.2,0.8 6.2,1Z" style="fill:rgb(0,184,237);fill-rule:nonzero;"/>
        </g>
    </g>
    <g transform="matrix(1.59918,0,0,1.59918,2.99514,138.856)">
        <g>
            <path d="M17.4,0.7L17.4,2.8C17.4,4.2 16.3,5.3 14.9,5.3C13.5,5.3 12.4,4.2 12.4,2.8L12.4,1L12.4,0.7L7.7,0.7L7.7,2.8C7.7,4.2 6.6,5.3 5.2,5.3C3.8,5.3 2.7,4.2 2.7,2.8L2.7,1L2.7,0.7L0,0.7L0,20L20,20L20,0.7L17.4,0.7ZM18,19L2,19L2,5.7L18,5.7L18,19Z" style="fill:white;fill-rule:nonzero;"/>
            <rect x="5.5" y="6.9" width="2.4" height="2" style="fill:white;fill-rule:nonzero;"/>
            <rect x="8.8" y="6.9" width="2.4" height="2" style="fill:white;fill-rule:nonzero;"/>
            <rect x="12.1" y="6.9" width="2.4" height="2" style="fill:white;fill-rule:nonzero;"/>
            <rect x="5.5" y="9.7" width="2.4" height="2.3" style="fill:white;fill-rule:nonzero;"/>
            <rect x="5.5" y="15.6" width="2.4" height="2" style="fill:white;fill-rule:nonzero;"/>
            <rect x="5.5" y="12.8" width="2.4" height="2" style="fill:white;fill-rule:nonzero;"/>
            <rect x="8.8" y="12.8" width="2.4" height="2" style="fill:white;fill-rule:nonzero;"/>
            <rect x="12.1" y="9.7" width="2.4" height="2.3" style="fill:white;fill-rule:nonzero;"/>
            <rect x="12.1" y="12.8" width="2.4" height="2" style="fill:white;fill-rule:nonzero;"/>
            <path d="M15.9,1L15.9,2.8C15.9,3.4 15.4,3.8 14.9,3.8C14.3,3.8 13.9,3.3 13.9,2.8L13.9,1C13.9,0.4 14.4,0 14.9,0C15.2,0 15.5,0.1 15.6,0.3C15.8,0.5 15.9,0.8 15.9,1Z" style="fill:white;fill-rule:nonzero;"/>
            <path d="M6.2,1L6.2,2.8C6.2,3.4 5.7,3.8 5.2,3.8C4.6,3.8 4.2,3.3 4.2,2.8L4.2,1C4.2,0.4 4.7,0 5.2,0C5.5,0 5.8,0.1 5.9,0.3C6.1,0.5 6.2,0.8 6.2,1Z" style="fill:white;fill-rule:nonzero;"/>
        </g>
    </g>
</svg>
